<?xml version="1.0" encoding="utf-8"?>
<!-- Generator: Adobe Illustrator 28.1.0, SVG Export Plug-In . SVG Version: 6.00 Build 0)  -->
<svg version="1.1" id="Layer_1" xmlns="http://www.w3.org/2000/svg" xmlns:xlink="http://www.w3.org/1999/xlink" x="0px" y="0px"
	 viewBox="0 0 512 512" style="enable-background:new 0 0 512 512;" xml:space="preserve">
<style type="text/css">
	.st0{fill:#FFFFFF;}
</style>
<path class="st0" d="M422.2,69.9c-90.6-92.2-238.8-93.4-331-2.8s-93.4,238.8-2.8,331c1.1,1.1,2.3,2.3,3.4,3.4l83.9,77.5
	c44.8,43.9,116.5,44.1,161.5,0.4l84.9-78.5C513.6,309.5,513.6,161.3,422.2,69.9z M341.8,256.7H278v63.8c0,11.8-9.5,21.3-21.3,21.3
	s-21.3-9.5-21.3-21.3v-63.8h-63.8c-11.8,0-21.3-9.5-21.3-21.3s9.5-21.3,21.3-21.3h63.8v-63.8c0-11.8,9.5-21.3,21.3-21.3
	s21.3,9.5,21.3,21.3v63.8h63.8c11.8,0,21.3,9.5,21.3,21.3S353.6,256.7,341.8,256.7z"/>
</svg>
