<?xml version="1.0" encoding="utf-8"?>
<!-- Generator: Adobe Illustrator 28.1.0, SVG Export Plug-In . SVG Version: 6.00 Build 0)  -->
<svg version="1.1" id="Layer_1" xmlns="http://www.w3.org/2000/svg" xmlns:xlink="http://www.w3.org/1999/xlink" x="0px" y="0px"
	 viewBox="0 0 24 24" style="enable-background:new 0 0 24 24;" xml:space="preserve">
<style type="text/css">
	.st0{fill:#FFFFFF;}
</style>
<path class="st0" d="M22,4h-4.1c-0.5-2.3-2.5-4-4.9-4h-2C8.6,0,6.6,1.7,6.1,4H2C1.4,4,1,4.4,1,5s0.4,1,1,1h0.9l1.3,13.5
	c0.2,2.6,2.4,4.5,5,4.5h5.7c2.6,0,4.7-1.9,5-4.5L21.1,6H22c0.6,0,1-0.4,1-1S22.6,4,22,4L22,4z M11,2h2c1.3,0,2.4,0.8,2.8,2H8.2
	C8.6,2.8,9.7,2,11,2L11,2z M15.7,16.3c0.4,0.4,0.4,1,0,1.4C15.5,17.9,15.3,18,15,18s-0.5-0.1-0.7-0.3L12,15.4l-2.3,2.3
	C9.5,17.9,9.3,18,9,18s-0.5-0.1-0.7-0.3c-0.4-0.4-0.4-1,0-1.4l2.3-2.3l-2.3-2.3c-0.4-0.4-0.4-1,0-1.4s1-0.4,1.4,0l2.3,2.3l2.3-2.3
	c0.4-0.4,1-0.4,1.4,0c0.4,0.4,0.4,1,0,1.4L13.4,14C13.4,14,15.7,16.3,15.7,16.3z"/>
</svg>
