<?xml version="1.0" encoding="UTF-8"?>
<svg xmlns="http://www.w3.org/2000/svg" id="Layer_1" data-name="Layer 1" viewBox="0 0 24 24">
  <path fill="white" d="m10.559,10.728c-.129.328-.244.653-.348.977-.207.641.283,1.296.956,1.296h0c.44,0,.82-.29.955-.709.086-.268.18-.537.285-.804,1.124-3.018,3.967-6.643,7.588-8.647-2.139,2.351-4.615,6.115-5.228,8.241,1.364-.372,2.906-1.044,4.4-2.251,2.929-2.365,4.348-5.771,4.802-7.559.165-.651-.337-1.269-1.009-1.27-1.77-.001-5.32.351-8.193,2.671-3.223,2.603-4.015,6.469-4.208,8.057ZM3,1.5v3.5h-.5c-1.381,0-2.5-1.119-2.5-2.5v-1C0,.672.672,0,1.5,0s1.5.672,1.5,1.5Zm20.992,19.668c-.014.156-.03.275-.047.332-.43,1.446-1.77,2.5-3.355,2.5h-9.35c.48-.716.76-1.576.76-2.5,0-1.381,1.119-2.5,2.5-2.5h7.498c1.17,0,2.099,1.003,1.993,2.168Zm-13.992.337c-.003,1.48-1.292,2.659-2.81,2.477-1.279-.154-2.19-1.335-2.19-2.624V1.5c0-.536-.122-1.045-.338-1.5h10.503c-.561.324-1.117.681-1.655,1.115-3.63,2.932-4.631,7.178-4.903,9.116-.108.288-.208.574-.301.861-.29.904-.129,1.902.432,2.672.564.774,1.473,1.236,2.43,1.236,1.12,0,2.124-.62,2.642-1.585l1.484-.405c1.716-.468,3.291-1.256,4.707-2.316v6.307h-5.499c-2.488,0-4.497,2.017-4.501,4.505Z"/>
</svg>