<?xml version="1.0" encoding="utf-8"?>
<!-- Generator: Adobe Illustrator 28.1.0, SVG Export Plug-In . SVG Version: 6.00 Build 0)  -->
<svg version="1.1" id="Layer_1" xmlns="http://www.w3.org/2000/svg" xmlns:xlink="http://www.w3.org/1999/xlink" x="0px" y="0px"
	 viewBox="0 0 512 512" style="enable-background:new 0 0 512 512;" xml:space="preserve">
<style type="text/css">
	.st0{fill:#FFFFFF;}
</style>
<path class="st0" d="M512,320v85.3c0,58.8-47.9,106.7-106.7,106.7H106.7C47.9,512,0,464.1,0,405.3V320c0-35.3,28.7-64,64-64h64
	c23.5,0,42.7,19.1,42.7,42.7c0,23.5,19.1,42.7,42.7,42.7h85.3c23.5,0,42.7-19.1,42.7-42.7c0-23.5,19.1-42.7,42.7-42.7h64
	C483.3,256,512,284.7,512,320z M185.7,112.9L234.7,64v149.3c0,11.8,9.5,21.3,21.3,21.3c11.8,0,21.3-9.5,21.3-21.3V64l48.9,48.9
	c4.2,4.2,9.6,6.3,15.1,6.3s10.9-2.1,15.1-6.3c8.3-8.3,8.3-21.8,0-30.2l-70.3-70.3c-8.2-8.2-19.1-12.4-29.9-12.4L256,0l-0.3,0.1
	c-10.8,0.1-21.6,4.2-29.9,12.4l-70.3,70.3c-8.3,8.3-8.3,21.8,0,30.2C163.9,121.3,177.4,121.3,185.7,112.9L185.7,112.9z"/>
</svg>
